<svg width="75" height="21" viewBox="0 0 75 21" fill="none" xmlns="http://www.w3.org/2000/svg">
<path d="M34.9314 12.9434C35.8809 12.4133 36.6809 11.6514 37.2567 10.7288C37.8119 9.79836 38.1029 8.73408 38.0982 7.65055C38.1225 6.7867 37.9634 5.92751 37.6313 5.12968C37.2992 4.33184 36.8016 3.61351 36.1715 3.02207C35.5356 2.41425 34.7853 1.93878 33.9641 1.62324C33.143 1.30771 32.2673 1.1584 31.388 1.18396H26.5381L27.9111 5.61313H31.3216C31.5903 5.60422 31.8578 5.65297 32.1061 5.75611C32.3544 5.85925 32.5778 6.01438 32.7611 6.21107C32.9534 6.41046 33.1035 6.64659 33.2024 6.90535C33.3014 7.1641 33.3471 7.44015 33.3369 7.71699C33.3466 8.28109 33.1406 8.82764 32.7611 9.24506C32.5784 9.43987 32.354 9.59086 32.1047 9.68673C31.8555 9.78261 31.5877 9.82089 31.3216 9.7987H29.107L30.4579 14.2279L33.4254 19.6979H38.5411L34.9314 12.9434Z" fill="#160E28"/>
<path d="M51.4542 10.1972C52.0208 9.76227 52.4737 9.19678 52.7745 8.54895C53.0753 7.90112 53.2149 7.19015 53.1815 6.47668C53.2165 5.74494 53.0829 5.01495 52.7911 4.34301C52.4993 3.67107 52.057 3.07513 51.4985 2.60115C50.2441 1.60262 48.671 1.09136 47.0693 1.16167H39.584V19.587H49.6161C50.502 19.3735 51.3228 18.9479 52.0078 18.3469C52.575 17.8583 53.0249 17.2482 53.3239 16.562C53.623 15.8757 53.7635 15.1308 53.7352 14.3828C53.7936 13.5402 53.6099 12.6985 53.2058 11.9569C52.8016 11.2154 52.1939 10.6048 51.4542 10.1972ZM44.4339 5.43582H46.8921C47.2921 5.42146 47.6817 5.56459 47.9773 5.83445C48.1197 5.971 48.2309 6.13664 48.3036 6.32007C48.3762 6.50351 48.4084 6.70044 48.398 6.89745C48.4138 7.10032 48.382 7.30407 48.3051 7.49247C48.2282 7.68087 48.1084 7.8487 47.9551 7.9826C47.6664 8.24906 47.2849 8.39211 46.8921 8.38122H44.4339V5.43582ZM48.5531 15.1357C48.3975 15.2851 48.2133 15.4013 48.0116 15.4775C47.8098 15.5536 47.5948 15.588 47.3793 15.5786H44.4339V12.4339H47.3793C47.5932 12.4216 47.8074 12.4525 48.009 12.5248C48.2107 12.5971 48.3957 12.7093 48.5531 12.8547C48.7092 13.0016 48.8316 13.1807 48.9119 13.3795C48.9922 13.5783 49.0284 13.7921 49.0181 14.0063C49.0267 14.2169 48.9895 14.4269 48.9092 14.6219C48.829 14.8169 48.7075 14.9921 48.5531 15.1357Z" fill="#160E28"/>
<path d="M54.9092 1.16162V19.587H59.6927V1.16162H54.9092Z" fill="#160E28"/>
<path d="M67.4209 15.2242L74.0647 4.85998V1.16162H61.3751V5.79011H67.8195L61.1758 16.1544V19.587H74.1533V15.1578L67.4209 15.2242Z" fill="#160E28"/>
<path d="M30.7278 19.6083H26.1657C26.0329 19.6083 25.8557 19.3426 25.8114 19.1876C25.1913 17.1502 24.6155 14.9356 24.084 12.9646C23.6411 11.4587 23.2203 9.95275 22.7774 8.53541C22.7445 8.38459 22.7001 8.23651 22.6445 8.09249L21.0279 12.721C20.7843 13.4296 20.585 14.1826 20.2749 14.9356C19.6735 16.5093 18.643 17.883 17.3003 18.9008C15.9577 19.9185 14.3566 20.5396 12.6789 20.6935C11.274 20.9279 9.83659 20.8822 8.44937 20.5592C7.06216 20.2361 5.75248 19.642 4.59565 18.8111C2.63342 17.3673 1.26214 15.2602 0.736679 12.8814C0.211222 10.5026 0.567339 8.01389 1.73884 5.8779C2.51243 4.35556 3.6725 3.06325 5.10282 2.13043C6.53315 1.19761 8.18349 0.657044 9.88852 0.562896C11.7459 0.368352 13.6228 0.626708 15.3585 1.31586H15.6243C15.0707 2.91036 14.5392 4.50486 13.9855 6.14366L13.5426 5.8779C12.9071 5.58708 12.2206 5.42427 11.5223 5.39876C10.8239 5.37325 10.1273 5.48554 9.47235 5.72923C8.81738 5.97292 8.21681 6.34322 7.70495 6.81901C7.19309 7.2948 6.77995 7.86674 6.48913 8.50219C6.1983 9.13764 6.03549 9.82415 6.00998 10.5225C5.98447 11.2209 6.09676 11.9175 6.34045 12.5724C6.58414 13.2274 6.95445 13.828 7.43023 14.3398C7.90602 14.8517 8.47796 15.2648 9.11341 15.5557C9.72671 15.8398 10.3931 15.9914 11.0689 16.0005C11.7448 16.0096 12.415 15.8761 13.0357 15.6085C13.6564 15.341 14.2138 14.9455 14.6713 14.448C15.1288 13.9504 15.4761 13.3619 15.6907 12.721C16.4437 10.7943 17.0859 8.82331 17.7724 6.87447C18.459 4.92563 18.9019 3.53044 19.4334 1.84736C19.5441 1.55946 19.6548 1.40444 20.0092 1.40444H25.0806L30.7278 19.5862V19.6083Z" fill="#7046C6"/>
</svg>
