<svg width="28" height="27" viewBox="0 0 28 27" fill="none" xmlns="http://www.w3.org/2000/svg">
<path d="M16.917 2.47796C15.1338 1.4761 12.9616 1.47609 11.1784 2.47796L4.56685 6.19253C2.96991 7.08974 2.9699 9.39791 4.56685 10.2951L11.1784 14.0097C12.9616 15.0116 15.1338 15.0116 16.917 14.0097L23.5286 10.2951C25.1255 9.39792 25.1255 7.08975 23.5286 6.19253L16.917 2.47796Z" fill="#7046C6"/>
<path opacity="0.3" d="M4.16337 17.1548C2.98367 18.1843 3.11816 20.1594 4.56685 20.9733L11.1784 24.6878C12.9616 25.6897 15.1338 25.6897 16.917 24.6878L23.5286 20.9733C24.9773 20.1594 25.1118 18.1843 23.9321 17.1548L17.7217 20.6439C15.4388 21.9266 12.6566 21.9266 10.3737 20.6439L4.16337 17.1548Z" fill="#7046C6"/>
<path opacity="0.3" d="M4.16337 11.8574C2.98367 12.8869 3.11816 14.862 4.56685 15.6759L11.1784 19.3905C12.9616 20.3923 15.1338 20.3923 16.917 19.3905L23.5286 15.6759C24.9773 14.862 25.1118 12.8869 23.9321 11.8574L17.7217 15.3466C15.4388 16.6292 12.6566 16.6292 10.3737 15.3466L4.16337 11.8574Z" fill="#7046C6"/>
</svg>
